Coordinates
version=1
nRows=29
nColumns=24
inDegrees=yes

Units are S.I. units (second, meters, Newtons, ...)
Angles are in degrees.

endheader
time	pelvis_tilt	pelvis_list	pelvis_rotation	pelvis_tx	pelvis_ty	pelvis_tz	hip_flexion_r	hip_adduction_r	hip_rotation_r	knee_angle_r	ankle_angle_r	subtalar_angle_r	mtp_angle_r	hip_flexion_l	hip_adduction_l	hip_rotation_l	knee_angle_l	ankle_angle_l	subtalar_angle_l	mtp_angle_l	lumbar_extension	lumbar_bending	lumbar_rotation
      7.11000000	     45.95935294	     -4.33593084	     -0.89627166	      0.57356070	      1.08659847	     -0.34032688	     26.18516246	     -6.76220850	     -7.94788606	    -73.60471087	    -26.28165540	    -18.89758746	      0.00000000	     26.35132340	    -17.63729521	    -10.40875508	    -65.17710313	    -27.78204504	      5.08317153	      0.00000000	      0.00000000	      0.00000000	      0.00000000
      7.12000000	     45.95436153	     -4.32494600	     -0.89596836	      0.57354088	      1.08661328	     -0.34032993	     26.18990820	     -6.77352019	     -7.94817486	    -73.59859226	    -26.29811283	    -18.92592095	      0.00000000	     26.37336982	    -17.57821842	    -10.56727339	    -64.70334292	    -27.71428664	      5.17723475	      0.00000000	      0.00000000	      0.00000000	      0.00000000
      7.13000000	     45.94892217	     -4.31544353	     -0.89572771	      0.57352717	      1.08661991	     -0.34033243	     26.19483590	     -6.78362302	     -7.94780948	    -73.59244584	    -26.31626300	    -18.96662461	      0.00000000	     26.39569842	    -17.52561790	    -10.70644228	    -64.27880329	    -27.65533994	      5.25298615	      0.00000000	      0.00000000	      0.00000000	      0.00000000
      7.14000000	     45.94442506	     -4.30620621	     -0.89631601	      0.57351220	      1.08662663	     -0.34033921	     26.19868245	     -6.79298436	     -7.94616467	    -73.58737777	    -26.33145895	    -19.00677687	      0.00000000	     26.41823331	    -17.48069598	    -10.82569286	    -63.90445264	    -27.60372819	      5.31289485	      0.00000000	      0.00000000	      0.00000000	      0.00000000
      7.15000000	     45.94146954	     -4.29620695	     -0.89795276	      0.57349192	      1.08664184	     -0.34034884	     26.20111942	     -6.80162701	     -7.94293884	    -73.58384267	    -26.34176863	    -19.03707721	      0.00000000	     26.44025876	    -17.44397334	    -10.92471500	    -63.58068099	    -27.55727121	      5.35997201	      0.00000000	      0.00000000	      0.00000000	      0.00000000
      7.16000000	     45.93944411	     -4.28598657	     -0.90005082	      0.57346784	      1.08665909	     -0.34034847	     26.20274780	     -6.80918106	     -7.93825308	    -73.58175594	    -26.34717849	    -19.05315078	      0.00000000	     26.46008384	    -17.41486553	    -11.00395986	    -63.30731458	    -27.51402858	      5.39669201	      0.00000000	      0.00000000	      0.00000000	      0.00000000
      7.17000000	     45.93714606	     -4.27688640	     -0.90186409	      0.57344681	      1.08666714	     -0.34033337	     26.20466833	     -6.81531484	     -7.93252494	    -73.58075095	    -26.34864731	    -19.05531613	      0.00000000	     26.47586849	    -17.39261333	    -11.06414146	    -63.08366841	    -27.47315940	      5.42439314	      0.00000000	      0.00000000	      0.00000000	      0.00000000
      7.18000000	     45.93360503	     -4.26965944	     -0.90323970	      0.57343716	      1.08666714	     -0.34031519	     26.20797311	     -6.82003410	     -7.92632470	    -73.58045494	    -26.34740337	    -19.04723860	      0.00000000	     26.48665158	    -17.37714569	    -11.10549656	    -62.90898355	    -27.43524420	      5.44331790	      0.00000000	      0.00000000	      0.00000000	      0.00000000
      7.19000000	     45.92845136	     -4.26420503	     -0.90466235	      0.57344144	      1.08667112	     -0.34030522	     26.21332894	     -6.82364299	     -7.92029343	    -73.58081111	    -26.34456104	    -19.03411040	      0.00000000	     26.49288892	    -17.36891332	    -11.12768318	    -62.78298021	    -27.40181719	      5.45316560	      0.00000000	      0.00000000	      0.00000000	      0.00000000
      7.20000000	     45.92175311	     -4.26006498	     -0.90664903	      0.57345247	      1.08668427	     -0.34030210	     26.22086157	     -6.82647204	     -7.91508050	    -73.58224232	    -26.34098816	    -19.02095484	      0.00000000	     26.49617010	    -17.36833187	    -11.13009898	    -62.70608579	    -27.37432480	      5.45389873	      0.00000000	      0.00000000	      0.00000000	      0.00000000
      7.21000000	     45.91363397	     -4.25700048	     -0.90907435	      0.57345973	      1.08669462	     -0.34029944	     26.23053294	     -6.82861361	     -7.91126871	    -73.58539145	    -26.33732361	    -19.01144186	      0.00000000	     26.49815587	    -17.37537476	    -11.11217059	    -62.67934062	    -27.35314670	      5.44661268	      0.00000000	      0.00000000	      0.00000000	      0.00000000
      7.22000000	     45.90425345	     -4.25525292	     -0.91112735	      0.57346315	      1.08668591	     -0.34029688	     26.24256180	     -6.82991439	     -7.90922804	    -73.59060434	    -26.33405266	    -19.00735810	      0.00000000	     26.49975735	    -17.38945270	    -11.07342010	    -62.70397729	    -27.33715227	      5.43420794	      0.00000000	      0.00000000	      0.00000000	      0.00000000
      7.23000000	     45.89385522	     -4.25522930	     -0.91201926	      0.57347470	      1.08665531	     -0.34029779	     26.25716872	     -6.83026212	     -7.90890816	    -73.59764922	    -26.33160555	    -19.00867673	      0.00000000	     26.50113567	    -17.40968356	    -11.01327442	    -62.78080238	    -27.32383740	      5.42149076	      0.00000000	      0.00000000	      0.00000000	      0.00000000
      7.24000000	     45.88246148	     -4.25685539	     -0.91170945	      0.57349978	      1.08661445	     -0.34030188	     26.27392504	     -6.82989190	     -7.90976956	    -73.60587091	    -26.33042926	    -19.01406296	      0.00000000	     26.50202751	    -17.43543741	    -10.93085485	    -62.90968565	    -27.30989841	      5.41444970	      0.00000000	      0.00000000	      0.00000000	      0.00000000
      7.25000000	     45.86982279	     -4.25924232	     -0.91089760	      0.57352714	      1.08657807	     -0.34030602	     26.29176087	     -6.82926317	     -7.91107648	    -73.61450356	    -26.33093710	    -19.02158434	      0.00000000	     26.50197028	    -17.46663036	    -10.82521942	    -63.08928624	    -27.29208369	      5.41875879	      0.00000000	      0.00000000	      0.00000000	      0.00000000
      7.26000000	     45.85596068	     -4.26129890	     -0.91035673	      0.57354791	      1.08655405	     -0.34030802	     26.30976756	     -6.82856071	     -7.91234632	    -73.62287548	    -26.33331116	    -19.02938126	      0.00000000	     26.50049358	    -17.50326536	    -10.69626465	    -63.31712149	    -27.26818228	      5.43787686	      0.00000000	      0.00000000	      0.00000000	      0.00000000
      7.27000000	     45.84132526	     -4.26284076	     -0.91028288	      0.57357006	      1.08653689	     -0.34030652	     26.32778801	     -6.82741232	     -7.91348351	    -73.63051160	    -26.33727850	    -19.03611403	      0.00000000	     26.49718675	    -17.54469286	    -10.54560060	    -63.59025381	    -27.23795931	      5.47129748	      0.00000000	      0.00000000	      0.00000000	      0.00000000
      7.28000000	     45.82628251	     -4.26478170	     -0.91039031	      0.57360149	      1.08651132	     -0.34030422	     26.34611552	     -6.82509580	     -7.91453951	    -73.63725804	    -26.34202075	    -19.04112364	      0.00000000	     26.49185467	    -17.58964234	    -10.37638232	    -63.90627402	    -27.20374299	      5.51349814	      0.00000000	      0.00000000	      0.00000000	      0.00000000
      7.29000000	     45.81102671	     -4.26825703	     -0.91072077	      0.57363574	      1.08647014	     -0.34030793	     26.36483076	     -6.82103190	     -7.91542694	    -73.64337722	    -26.34629841	    -19.04435318	      0.00000000	     26.48511112	    -17.63709696	    -10.19204629	    -64.26370750	    -27.17039827	      5.55403259	      0.00000000	      0.00000000	      0.00000000	      0.00000000
      7.30000000	     45.79588619	     -4.27370126	     -0.91205658	      0.57366449	      1.08642463	     -0.34031867	     26.38377274	     -6.81515430	     -7.91591892	    -73.64941909	    -26.34878482	    -19.04610296	      0.00000000	     26.47844358	    -17.68721728	     -9.99484125	    -64.66185961	    -27.14460444	      5.57904077	      0.00000000	      0.00000000	      0.00000000	      0.00000000
      7.31000000	     45.78094086	     -4.28051068	     -0.91519858	      0.57369110	      1.08638930	     -0.34032852	     26.40318178	     -6.80789376	     -7.91598125	    -73.65594567	    -26.34849311	    -19.04671132	      0.00000000	     26.47288109	    -17.74164590	     -9.78506889	    -65.10071513	    -27.13351090	      5.57411109	      0.00000000	      0.00000000	      0.00000000	      0.00000000
      7.32000000	     45.76525971	     -4.28748626	     -0.91987710	      0.57372444	      1.08636012	     -0.34033068	     26.42398390	     -6.79991679	     -7.91613259	    -73.66338150	    -26.34511300	    -19.04627490	      0.00000000	     26.46769197	    -17.80276892	     -9.56145629	    -65.58074820	    -27.14294435	      5.52792143	      0.00000000	      0.00000000	      0.00000000	      0.00000000
      7.33000000	     45.74746763	     -4.29393692	     -0.92461121	      0.57376537	      1.08631869	     -0.34032766	     26.44698956	     -6.79178458	     -7.91754318	    -73.67204587	    -26.33912851	    -19.04449188	      0.00000000	     26.46145894	    -17.87184294	     -9.32260526	    -66.10204397	    -27.17553667	      5.43562176	      0.00000000	      0.00000000	      0.00000000	      0.00000000
      7.34000000	     45.72789758	     -4.30071516	     -0.92769304	      0.57381068	      1.08626047	     -0.34032363	     26.47169745	     -6.78369670	     -7.92174253	    -73.68216554	    -26.33165904	    -19.04069003	      0.00000000	     26.45507000	    -17.94712600	     -9.06869490	    -66.66290348	    -27.22945114	      5.30066298	      0.00000000	      0.00000000	      0.00000000	      0.00000000
      7.35000000	     45.70911667	     -4.30976562	     -0.92802239	      0.57386140	      1.08619990	     -0.34031958	     26.49621769	     -6.77567782	     -7.92991117	    -73.69368237	    -26.32402339	    -19.03408417	      0.00000000	     26.45216069	    -18.02445810	     -8.80167705	    -67.25952901	    -27.29858648	      5.13403175	      0.00000000	      0.00000000	      0.00000000	      0.00000000
      7.36000000	     45.69332842	     -4.32237681	     -0.92505830	      0.57391400	      1.08614210	     -0.34032617	     26.51867313	     -6.76810143	     -7.94211969	    -73.70602651	    -26.31716524	    -19.02420014	      0.00000000	     26.45537745	    -18.10029160	     -8.52374811	    -67.88762378	    -27.37453121	      4.95108190	      0.00000000	      0.00000000	      0.00000000	      0.00000000
      7.37000000	     45.68048111	     -4.33813339	     -0.91885007	      0.57395586	      1.08607594	     -0.34036653	     26.53846766	     -6.76171910	     -7.95718016	    -73.71837684	    -26.31122411	    -19.01126978	      0.00000000	     26.46372692	    -18.17384622	     -8.23633005	    -68.54392056	    -27.44921354	      4.76745136	      0.00000000	      0.00000000	      0.00000000	      0.00000000
      7.38000000	     45.66933874	     -4.35520887	     -0.91052282	      0.57397909	      1.08600003	     -0.34045150	     26.55619201	     -6.75689347	     -7.97326698	    -73.73039976	    -26.30547346	    -18.99641468	      0.00000000	     26.47426668	    -18.24675093	     -7.94071483	    -69.22596302	    -27.51680659	      4.59558357	      0.00000000	      0.00000000	      0.00000000	      0.00000000
      7.39000000	     45.65902777	     -4.37155315	     -0.90215732	      0.57399563	      1.08592793	     -0.34055267	     26.57290687	     -6.75288954	     -7.98873034	    -73.74262921	    -26.29863000	    -18.98155614	      0.00000000	     26.48482963	    -18.32127908	     -7.63925840	    -69.93119648	    -27.57435786	      4.44266746	      0.00000000	      0.00000000	      0.00000000	      0.00000000
